<mxfile host="Electron" agent="Mozilla/5.0 (Macintosh; Intel Mac OS X 10_15_7) AppleWebKit/537.36 (KHTML, like Gecko) draw.io/26.2.2 Chrome/134.0.6998.178 Electron/35.1.2 Safari/537.36" version="26.2.2">
  <diagram name="Page-1" id="i9Skm87GSDn9yCfELr1Y">
    <mxGraphModel dx="1009" dy="748" grid="1" gridSize="10" guides="1" tooltips="1" connect="1" arrows="1" fold="1" page="1" pageScale="1" pageWidth="850" pageHeight="1100" math="0" shadow="0">
      <root>
        <mxCell id="0" />
        <mxCell id="1" parent="0" />
        <mxCell id="lugPzECAA1jiRSQXwfJh-1" value="" style="rounded=0;whiteSpace=wrap;html=1;fillColor=light-dark(#071431, #ededed);" vertex="1" parent="1">
          <mxGeometry x="195" y="20" width="400" height="80" as="geometry" />
        </mxCell>
        <mxCell id="lugPzECAA1jiRSQXwfJh-3" value="" style="shape=image;verticalLabelPosition=bottom;labelBackgroundColor=default;verticalAlign=top;aspect=fixed;imageAspect=0;image=https://download.logo.wine/logo/Kubernetes/Kubernetes-Logo.wine.png;" vertex="1" parent="1">
          <mxGeometry x="190" y="30" width="90" height="60" as="geometry" />
        </mxCell>
        <mxCell id="lugPzECAA1jiRSQXwfJh-4" value="" style="shadow=0;dashed=0;html=1;strokeColor=none;fillColor=light-dark(#3f8eca, #3d83b7);labelPosition=center;verticalLabelPosition=bottom;verticalAlign=top;align=center;outlineConnect=0;shape=mxgraph.veeam.magnifying_glass;pointerEvents=1;" vertex="1" parent="1">
          <mxGeometry x="200" y="29" width="94" height="84" as="geometry" />
        </mxCell>
        <mxCell id="lugPzECAA1jiRSQXwfJh-5" value="&lt;font style=&quot;font-size: 24px; color: light-dark(rgb(231, 247, 171), rgb(237, 237, 237));&quot;&gt;K8s Debugger&lt;/font&gt;" style="text;html=1;align=center;verticalAlign=middle;whiteSpace=wrap;rounded=0;" vertex="1" parent="1">
          <mxGeometry x="294" y="29" width="212" height="30" as="geometry" />
        </mxCell>
        <mxCell id="lugPzECAA1jiRSQXwfJh-6" value="&lt;span style=&quot;caret-color: rgb(36, 41, 46); font-family: -apple-system, BlinkMacSystemFont, &amp;quot;Segoe UI&amp;quot;, Roboto, Helvetica, Arial, sans-serif;&quot;&gt;&lt;font style=&quot;color: light-dark(rgb(234, 253, 180), rgb(199, 203, 207)); font-size: 11px;&quot;&gt;Simplify K8s Troubleshooting&amp;nbsp;&lt;/font&gt;&lt;/span&gt;&lt;div style=&quot;&quot;&gt;&lt;span style=&quot;caret-color: rgb(36, 41, 46); font-family: -apple-system, BlinkMacSystemFont, &amp;quot;Segoe UI&amp;quot;, Roboto, Helvetica, Arial, sans-serif;&quot;&gt;&lt;font style=&quot;color: light-dark(rgb(234, 253, 180), rgb(199, 203, 207)); font-size: 11px;&quot;&gt;&amp;nbsp; &amp;nbsp; &amp;nbsp; &amp;nbsp; &amp;nbsp; &amp;nbsp; &amp;nbsp; &amp;nbsp; &amp;nbsp; &amp;nbsp; &amp;nbsp; &amp;nbsp;with AI-Powered Agents and MCP&lt;/font&gt;&lt;/span&gt;&lt;/div&gt;" style="text;html=1;align=left;verticalAlign=middle;whiteSpace=wrap;rounded=0;" vertex="1" parent="1">
          <mxGeometry x="277" y="68" width="310" height="30" as="geometry" />
        </mxCell>
        <mxCell id="lugPzECAA1jiRSQXwfJh-8" value="" style="sketch=0;outlineConnect=0;fontColor=#232F3E;gradientColor=none;fillColor=light-dark(#b6c8dd, #bec8d4);strokeColor=none;dashed=0;verticalLabelPosition=bottom;verticalAlign=top;align=center;html=1;fontSize=12;fontStyle=0;aspect=fixed;pointerEvents=1;shape=mxgraph.aws4.gear;opacity=40;" vertex="1" parent="1">
          <mxGeometry x="395" y="20" width="159" height="159" as="geometry" />
        </mxCell>
      </root>
    </mxGraphModel>
  </diagram>
</mxfile>
